<svg version="1.1" baseProfile="full" width="1636.0" height="496.0" viewBox="0 0 1636 496" xmlns="http://www.w3.org/2000/svg" xmlns:xlink="http://www.w3.org/1999/xlink" xmlns:ev="http://www.w3.org/2001/xml-events">
	<desc >
	# Created using nomnoml.com
	#direction: right

	[Origin Chain|
	  [&lt;actor&gt; User]

	  [ICA Router|
	  	callRemoteCommitReveal()
	  ]

	  [Mailbox |
	  	dispatch()
	  ]

	  [User] --&gt; [ICA Router] --&gt; [Mailbox]
	]


	[Destination Chain|
	  [Mailbox |
	  	process()
	  ]

	  [ICA Router|
	  	verify() |
	    handle()
	  ]

	  [Message ISM|
	  	verify()
	  ]

	  [Commitment Read ISM|
	  	verify()
	  ]

	  [Sender ICA|
	  	revealAndExecute()|
	    setCommitment()
	  ]

	  [&lt;actor&gt; Recipient]

	  [Mailbox] o-&gt; [ICA Router]
	  [ICA Router] o-&gt; [Message ISM]
	  [ICA Router] o-&gt; [Sender ICA]


	  [Mailbox] +--&gt; [ICA Router]
	  [ICA Router] +--&gt; [Commitment Read ISM]
	  [Commitment Read ISM] +--&gt; [Sender ICA]
	  [Sender ICA] +--&gt; [&lt;actor&gt; Recipient]
	]

	[Modular Interop Layer] --o) [Superchain]

	[Origin Chain] o-&gt;commit [Modular Interop Layer]
	[Origin Chain] +--&gt;reveal [Modular Interop Layer]
	[Modular Interop Layer] o-&gt; [Destination Chain]
	[Modular Interop Layer] +--&gt; [Destination Chain]

	[Modular Interop Layer] -o) [Hyperlane]
	</desc>
	<g stroke-width="1.0" text-align="left" font="12pt Helvetica, Arial, sans-serif" font-size="12pt" font-family="Helvetica" font-weight="bold" font-style="normal">
		<g font-family="Helvetica" font-size="12pt" font-weight="bold" font-style="normal" stroke-width="3.0" stroke-linejoin="round" stroke-linecap="round" stroke="#33322E">
			<g stroke="transparent" fill="transparent">
				<rect x="0.0" y="0.0" height="496.0" width="1636.0" stroke="none"></rect>
			</g>
			<g transform="translate(8, 8)" fill="#33322E">
				<g transform="translate(20, 20)" fill="#eee8d5" font-family="Helvetica" font-size="12pt" font-weight="normal" font-style="normal">
					<g stroke-dasharray="6 6">
						<path d="M624.8 204.0 L728 16 L1097.8333333333333 16 L1097.8 16.0 " fill="none"></path>
					</g>
					<path d="M1097.8 8.0 L1100.1 8.3 L1102.2 9.3 L1103.9 10.8 L1105.1 12.7 L1105.8 14.9 L1105.8 17.1 L1105.1 19.3 L1103.9 21.2 L1102.2 22.7 L1100.1 23.7 L1097.8 24.0" fill="none"></path>
					<path d="M1105.8 16.0 L1112.5 16.0" fill="none"></path>
					<ellipse cx="1097.8" cy="16.0" rx="4.0" ry="4.0"></ellipse>
					<text x="534.4" y="196.0" stroke="none">commit</text>
					<path d="M502.6 200.1 L504 200 L519.8371494966101 202.82806241010894 L519.8 202.8 " fill="none"></path>
					<path d="M512.3 206.9 L519.8 202.8 L514.2 196.4 L526.4 204.0 Z"></path>
					<g fill="#eee8d5">
						<path d="M492.9 195.5 L502.6 200.1 L493.7 206.1 L484.0 201.5 Z"></path>
					</g>
					<text x="534.4" y="256.0" stroke="none">reveal</text>
					<g stroke-dasharray="6 6">
						<path d="M502.6 239.9 L504 240 L519.8371494966101 237.17193758989106 L519.8 237.2 " fill="none"></path>
					</g>
					<path d="M514.2 243.6 L519.8 237.2 L512.3 233.1 L526.4 236.0 Z"></path>
					<g fill="#33322E">
						<path d="M493.7 233.9 L502.6 239.9 L492.9 244.5 L484.0 238.5 Z"></path>
					</g>
					<path d="M652.9 193.0 L728 138 L741.4482002296138 140.52924866703748 L741.4 140.5 " fill="none"></path>
					<path d="M733.9 144.5 L741.4 140.5 L735.9 134.1 L748.0 141.8 Z"></path>
					<g fill="#eee8d5">
						<path d="M642.2 194.2 L652.9 193.0 L648.5 202.8 L637.9 204.0 Z"></path>
					</g>
					<g stroke-dasharray="6 6">
						<path d="M652.9 247.0 L728 302 L741.4482002296138 299.47075133296255 L741.4 299.5 " fill="none"></path>
					</g>
					<path d="M735.9 305.9 L741.4 299.5 L733.9 295.5 L748.0 298.2 Z"></path>
					<g fill="#33322E">
						<path d="M648.5 237.2 L652.9 247.0 L642.2 245.8 L637.9 236.0 Z"></path>
					</g>
					<path d="M624.8 236.0 L728 424 L1102.8333333333333 424 L1102.8 424.0 " fill="none"></path>
					<path d="M1102.8 416.0 L1105.1 416.3 L1107.2 417.3 L1108.9 418.8 L1110.1 420.7 L1110.8 422.9 L1110.8 425.1 L1110.1 427.3 L1108.9 429.2 L1107.2 430.7 L1105.1 431.7 L1102.8 432.0" fill="none"></path>
					<path d="M1110.8 424.0 L1117.5 424.0" fill="none"></path>
					<ellipse cx="1102.8" cy="424.0" rx="4.0" ry="4.0"></ellipse>
					<g data-name="Origin Chain">
						<g fill="#eee8d5" stroke="#33322E" data-name="Origin Chain">
							<rect x="0.0" y="144.0" height="152.0" width="484.0" data-name="Origin Chain"></rect>
							<path d="M0.0 176.0 L484.0 176.0" fill="none" data-name="Origin Chain"></path>
						</g>
						<g transform="translate(0, 144)" font-family="Helvetica" font-size="12pt" font-weight="bold" font-style="normal" data-name="Origin Chain" data-compartment="0">
							<g transform="translate(8, 8)" fill="#33322E" text-align="center" data-name="Origin Chain" data-compartment="0">
								<text x="234.0" y="14.1" stroke="none" text-anchor="middle" data-name="Origin Chain" data-compartment="0">Origin Chain</text>

							</g>
						</g>
						<g transform="translate(0, 176)" font-family="Helvetica" font-size="12pt" font-weight="normal" font-style="normal" data-name="Origin Chain" data-compartment="1">
							<g transform="translate(8, 8)" fill="#33322E" data-name="Origin Chain" data-compartment="1">
								<g transform="translate(20, 20)" fill="#33322E" font-family="Helvetica" font-size="12pt" font-weight="normal" font-style="normal" data-name="Origin Chain" data-compartment="1">
									<g stroke-dasharray="6 6" data-name="Origin Chain" data-compartment="1">
										<path d="M51.0 32.0 L71 32 L84.33333333333333 32 L84.3 32.0 " fill="none" data-name="Origin Chain" data-compartment="1"></path>
									</g>
									<path d="M77.7 37.3 L84.3 32.0 L77.7 26.7 L91.0 32.0 Z" data-name="Origin Chain" data-compartment="1"></path>
									<g stroke-dasharray="6 6" data-name="Origin Chain" data-compartment="1">
										<path d="M302.0 32.0 L322 32 L335.3333333333333 32 L335.3 32.0 " fill="none" data-name="Origin Chain" data-compartment="1"></path>
									</g>
									<path d="M328.7 37.3 L335.3 32.0 L328.7 26.7 L342.0 32.0 Z" data-name="Origin Chain" data-compartment="1"></path>
									<g data-name="User">
										<g fill="#fdf6e3" stroke="#33322E" data-name="User">
											<circle r="4.0" cx="25.5" cy="16.0" data-name="User"></circle>
											<path d="M25.5 20.0 L25.5 28.0" fill="none" data-name="User"></path>
											<path d="M21.5 24.0 L29.5 24.0" fill="none" data-name="User"></path>
											<path d="M21.5 32.0 L25.5 28.0 L29.5 32.0" fill="none" data-name="User"></path>
										</g>
										<g transform="translate(0, 28)" font-family="Helvetica" font-size="12pt" font-weight="normal" font-style="normal" data-name="User" data-compartment="0">
											<g transform="translate(8, 8)" fill="#33322E" text-align="center" data-name="User" data-compartment="0">
												<text x="17.5" y="14.1" stroke="none" text-anchor="middle" data-name="User" data-compartment="0">User</text>

											</g>
										</g>
									</g>
									<g data-name="ICA Router">
										<g fill="#fdf6e3" stroke="#33322E" data-name="ICA Router">
											<rect x="91.0" y="0.0" height="64.0" width="211.0" data-name="ICA Router"></rect>
											<path d="M91.0 32.0 L302.0 32.0" fill="none" data-name="ICA Router"></path>
										</g>
										<g transform="translate(91, 0)" font-family="Helvetica" font-size="12pt" font-weight="bold" font-style="normal" data-name="ICA Router" data-compartment="0">
											<g transform="translate(8, 8)" fill="#33322E" text-align="center" data-name="ICA Router" data-compartment="0">
												<text x="97.5" y="14.1" stroke="none" text-anchor="middle" data-name="ICA Router" data-compartment="0">ICA Router</text>

											</g>
										</g>
										<g transform="translate(91, 32)" font-family="Helvetica" font-size="12pt" font-weight="normal" font-style="normal" data-name="ICA Router" data-compartment="1">
											<g transform="translate(8, 8)" fill="#33322E" text-align="left" data-name="ICA Router" data-compartment="1">
												<text x="0.0" y="14.1" stroke="none" data-name="ICA Router" data-compartment="1">callRemoteCommitReveal()</text>

											</g>
										</g>
									</g>
									<g data-name="Mailbox">
										<g fill="#fdf6e3" stroke="#33322E" data-name="Mailbox">
											<rect x="342.0" y="0.0" height="64.0" width="86.0" data-name="Mailbox"></rect>
											<path d="M342.0 32.0 L428.0 32.0" fill="none" data-name="Mailbox"></path>
										</g>
										<g transform="translate(342, 0)" font-family="Helvetica" font-size="12pt" font-weight="bold" font-style="normal" data-name="Mailbox" data-compartment="0">
											<g transform="translate(8, 8)" fill="#33322E" text-align="center" data-name="Mailbox" data-compartment="0">
												<text x="35.0" y="14.1" stroke="none" text-anchor="middle" data-name="Mailbox" data-compartment="0">Mailbox</text>

											</g>
										</g>
										<g transform="translate(342, 32)" font-family="Helvetica" font-size="12pt" font-weight="normal" font-style="normal" data-name="Mailbox" data-compartment="1">
											<g transform="translate(8, 8)" fill="#33322E" text-align="left" data-name="Mailbox" data-compartment="1">
												<text x="0.0" y="14.1" stroke="none" data-name="Mailbox" data-compartment="1">dispatch()</text>

											</g>
										</g>
									</g>
								</g>
							</g>
						</g>
					</g>
					<g data-name="Destination Chain">
						<g fill="#eee8d5" stroke="#33322E" data-name="Destination Chain">
							<rect x="748.0" y="72.0" height="296.0" width="832.0" data-name="Destination Chain"></rect>
							<path d="M748.0 104.0 L1580.0 104.0" fill="none" data-name="Destination Chain"></path>
						</g>
						<g transform="translate(748, 72)" font-family="Helvetica" font-size="12pt" font-weight="bold" font-style="normal" data-name="Destination Chain" data-compartment="0">
							<g transform="translate(8, 8)" fill="#33322E" text-align="center" data-name="Destination Chain" data-compartment="0">
								<text x="408.0" y="14.1" stroke="none" text-anchor="middle" data-name="Destination Chain" data-compartment="0">Destination Chain</text>

							</g>
						</g>
						<g transform="translate(748, 104)" font-family="Helvetica" font-size="12pt" font-weight="normal" font-style="normal" data-name="Destination Chain" data-compartment="1">
							<g transform="translate(8, 8)" fill="#33322E" data-name="Destination Chain" data-compartment="1">
								<g transform="translate(20, 20)" fill="#33322E" font-family="Helvetica" font-size="12pt" font-weight="normal" font-style="normal" data-name="Destination Chain" data-compartment="1">
									<path d="M100.8 84.7 L103 84 L116.5933304884478 87.91174978084828 L116.6 87.9 " fill="none" data-name="Destination Chain" data-compartment="1"></path>
									<path d="M108.7 91.2 L116.6 87.9 L111.7 80.9 L123.0 89.8 Z" data-name="Destination Chain" data-compartment="1"></path>
									<g fill="#eee8d5" data-name="Destination Chain" data-compartment="1">
										<path d="M90.2 82.5 L100.8 84.7 L93.5 92.7 L83.0 90.5 Z" data-name="Destination Chain" data-compartment="1"></path>
									</g>
									<path d="M231.8 42.6 L242 32 L292.3333333333333 32 L292.3 32.0 " fill="none" data-name="Destination Chain" data-compartment="1"></path>
									<path d="M285.7 37.3 L292.3 32.0 L285.7 26.7 L299.0 32.0 Z" data-name="Destination Chain" data-compartment="1"></path>
									<g fill="#eee8d5" data-name="Destination Chain" data-compartment="1">
										<path d="M221.5 45.6 L231.8 42.6 L229.2 53.0 L218.8 56.0 Z" data-name="Destination Chain" data-compartment="1"></path>
									</g>
									<path d="M240.7 104.0 L242 104 L357 104 L357 104 L472 104 L472 104 L485.7422016032218 109.04815569097944 L485.7 109.0 " fill="none" data-name="Destination Chain" data-compartment="1"></path>
									<path d="M477.6 111.8 L485.7 109.0 L481.3 101.7 L492.0 111.3 Z" data-name="Destination Chain" data-compartment="1"></path>
									<g fill="#eee8d5" data-name="Destination Chain" data-compartment="1">
										<path d="M231.3 98.7 L240.7 104.0 L231.3 109.3 L222.0 104.0 Z" data-name="Destination Chain" data-compartment="1"></path>
									</g>
									<g stroke-dasharray="6 6" data-name="Destination Chain" data-compartment="1">
										<path d="M100.8 123.3 L103 124 L116.5933304884478 120.08825021915172 L116.6 120.1 " fill="none" data-name="Destination Chain" data-compartment="1"></path>
									</g>
									<path d="M111.7 127.1 L116.6 120.1 L108.7 116.8 L123.0 118.2 Z" data-name="Destination Chain" data-compartment="1"></path>
									<g fill="#33322E" data-name="Destination Chain" data-compartment="1">
										<path d="M93.5 115.3 L100.8 123.3 L90.2 125.5 L83.0 117.5 Z" data-name="Destination Chain" data-compartment="1"></path>
									</g>
									<g stroke-dasharray="6 6" data-name="Destination Chain" data-compartment="1">
										<path d="M231.8 165.4 L242 176 L255.33333333333334 176 L255.3 176.0 " fill="none" data-name="Destination Chain" data-compartment="1"></path>
									</g>
									<path d="M248.7 181.3 L255.3 176.0 L248.7 170.7 L262.0 176.0 Z" data-name="Destination Chain" data-compartment="1"></path>
									<g fill="#33322E" data-name="Destination Chain" data-compartment="1">
										<path d="M229.2 155.0 L231.8 165.4 L221.5 162.4 L218.8 152.0 Z" data-name="Destination Chain" data-compartment="1"></path>
									</g>
									<g stroke-dasharray="6 6" data-name="Destination Chain" data-compartment="1">
										<path d="M470.7 176.0 L472 176 L485.7422016032218 170.95184430902054 L485.7 171.0 " fill="none" data-name="Destination Chain" data-compartment="1"></path>
									</g>
									<path d="M481.3 178.3 L485.7 171.0 L477.6 168.2 L492.0 168.7 Z" data-name="Destination Chain" data-compartment="1"></path>
									<g fill="#33322E" data-name="Destination Chain" data-compartment="1">
										<path d="M461.3 170.7 L470.7 176.0 L461.3 181.3 L452.0 176.0 Z" data-name="Destination Chain" data-compartment="1"></path>
									</g>
									<g stroke-dasharray="6 6" data-name="Destination Chain" data-compartment="1">
										<path d="M666.7 140.0 L668 140 L681.3333333333334 140 L681.3 140.0 " fill="none" data-name="Destination Chain" data-compartment="1"></path>
									</g>
									<path d="M674.7 145.3 L681.3 140.0 L674.7 134.7 L688.0 140.0 Z" data-name="Destination Chain" data-compartment="1"></path>
									<g fill="#33322E" data-name="Destination Chain" data-compartment="1">
										<path d="M657.3 134.7 L666.7 140.0 L657.3 145.3 L648.0 140.0 Z" data-name="Destination Chain" data-compartment="1"></path>
									</g>
									<g data-name="Mailbox">
										<g fill="#fdf6e3" stroke="#33322E" data-name="Mailbox">
											<rect x="0.0" y="72.0" height="64.0" width="83.0" data-name="Mailbox"></rect>
											<path d="M0.0 104.0 L83.0 104.0" fill="none" data-name="Mailbox"></path>
										</g>
										<g transform="translate(0, 72)" font-family="Helvetica" font-size="12pt" font-weight="bold" font-style="normal" data-name="Mailbox" data-compartment="0">
											<g transform="translate(8, 8)" fill="#33322E" text-align="center" data-name="Mailbox" data-compartment="0">
												<text x="33.5" y="14.1" stroke="none" text-anchor="middle" data-name="Mailbox" data-compartment="0">Mailbox</text>

											</g>
										</g>
										<g transform="translate(0, 104)" font-family="Helvetica" font-size="12pt" font-weight="normal" font-style="normal" data-name="Mailbox" data-compartment="1">
											<g transform="translate(8, 8)" fill="#33322E" text-align="left" data-name="Mailbox" data-compartment="1">
												<text x="0.0" y="14.1" stroke="none" data-name="Mailbox" data-compartment="1">process()</text>

											</g>
										</g>
									</g>
									<g data-name="ICA Router">
										<g fill="#fdf6e3" stroke="#33322E" data-name="ICA Router">
											<rect x="123.0" y="56.0" height="96.0" width="99.0" data-name="ICA Router"></rect>
											<path d="M123.0 88.0 L222.0 88.0" fill="none" data-name="ICA Router"></path>
											<path d="M123.0 120.0 L222.0 120.0" fill="none" data-name="ICA Router"></path>
										</g>
										<g transform="translate(123, 56)" font-family="Helvetica" font-size="12pt" font-weight="bold" font-style="normal" data-name="ICA Router" data-compartment="0">
											<g transform="translate(8, 8)" fill="#33322E" text-align="center" data-name="ICA Router" data-compartment="0">
												<text x="41.5" y="14.1" stroke="none" text-anchor="middle" data-name="ICA Router" data-compartment="0">ICA Router</text>

											</g>
										</g>
										<g transform="translate(123, 88)" font-family="Helvetica" font-size="12pt" font-weight="normal" font-style="normal" data-name="ICA Router" data-compartment="1">
											<g transform="translate(8, 8)" fill="#33322E" text-align="left" data-name="ICA Router" data-compartment="1">
												<text x="0.0" y="14.1" stroke="none" data-name="ICA Router" data-compartment="1">verify()</text>

											</g>
										</g>
										<g transform="translate(123, 120)" font-family="Helvetica" font-size="12pt" font-weight="normal" font-style="normal" data-name="ICA Router" data-compartment="2">
											<g transform="translate(8, 8)" fill="#33322E" text-align="left" data-name="ICA Router" data-compartment="2">
												<text x="0.0" y="14.1" stroke="none" data-name="ICA Router" data-compartment="2">handle()</text>

											</g>
										</g>
									</g>
									<g data-name="Message ISM">
										<g fill="#fdf6e3" stroke="#33322E" data-name="Message ISM">
											<rect x="299.0" y="0.0" height="64.0" width="116.0" data-name="Message ISM"></rect>
											<path d="M299.0 32.0 L415.0 32.0" fill="none" data-name="Message ISM"></path>
										</g>
										<g transform="translate(299, 0)" font-family="Helvetica" font-size="12pt" font-weight="bold" font-style="normal" data-name="Message ISM" data-compartment="0">
											<g transform="translate(8, 8)" fill="#33322E" text-align="center" data-name="Message ISM" data-compartment="0">
												<text x="50.0" y="14.1" stroke="none" text-anchor="middle" data-name="Message ISM" data-compartment="0">Message ISM</text>

											</g>
										</g>
										<g transform="translate(299, 32)" font-family="Helvetica" font-size="12pt" font-weight="normal" font-style="normal" data-name="Message ISM" data-compartment="1">
											<g transform="translate(8, 8)" fill="#33322E" text-align="left" data-name="Message ISM" data-compartment="1">
												<text x="0.0" y="14.1" stroke="none" data-name="Message ISM" data-compartment="1">verify()</text>

											</g>
										</g>
									</g>
									<g data-name="Commitment Read ISM">
										<g fill="#fdf6e3" stroke="#33322E" data-name="Commitment Read ISM">
											<rect x="262.0" y="144.0" height="64.0" width="190.0" data-name="Commitment Read ISM"></rect>
											<path d="M262.0 176.0 L452.0 176.0" fill="none" data-name="Commitment Read ISM"></path>
										</g>
										<g transform="translate(262, 144)" font-family="Helvetica" font-size="12pt" font-weight="bold" font-style="normal" data-name="Commitment Read ISM" data-compartment="0">
											<g transform="translate(8, 8)" fill="#33322E" text-align="center" data-name="Commitment Read ISM" data-compartment="0">
												<text x="87.0" y="14.1" stroke="none" text-anchor="middle" data-name="Commitment Read ISM" data-compartment="0">Commitment Read ISM</text>

											</g>
										</g>
										<g transform="translate(262, 176)" font-family="Helvetica" font-size="12pt" font-weight="normal" font-style="normal" data-name="Commitment Read ISM" data-compartment="1">
											<g transform="translate(8, 8)" fill="#33322E" text-align="left" data-name="Commitment Read ISM" data-compartment="1">
												<text x="0.0" y="14.1" stroke="none" data-name="Commitment Read ISM" data-compartment="1">verify()</text>

											</g>
										</g>
									</g>
									<g data-name="Sender ICA">
										<g fill="#fdf6e3" stroke="#33322E" data-name="Sender ICA">
											<rect x="492.0" y="92.0" height="96.0" width="156.0" data-name="Sender ICA"></rect>
											<path d="M492.0 124.0 L648.0 124.0" fill="none" data-name="Sender ICA"></path>
											<path d="M492.0 156.0 L648.0 156.0" fill="none" data-name="Sender ICA"></path>
										</g>
										<g transform="translate(492, 92)" font-family="Helvetica" font-size="12pt" font-weight="bold" font-style="normal" data-name="Sender ICA" data-compartment="0">
											<g transform="translate(8, 8)" fill="#33322E" text-align="center" data-name="Sender ICA" data-compartment="0">
												<text x="70.0" y="14.1" stroke="none" text-anchor="middle" data-name="Sender ICA" data-compartment="0">Sender ICA</text>

											</g>
										</g>
										<g transform="translate(492, 124)" font-family="Helvetica" font-size="12pt" font-weight="normal" font-style="normal" data-name="Sender ICA" data-compartment="1">
											<g transform="translate(8, 8)" fill="#33322E" text-align="left" data-name="Sender ICA" data-compartment="1">
												<text x="0.0" y="14.1" stroke="none" data-name="Sender ICA" data-compartment="1">revealAndExecute()</text>

											</g>
										</g>
										<g transform="translate(492, 156)" font-family="Helvetica" font-size="12pt" font-weight="normal" font-style="normal" data-name="Sender ICA" data-compartment="2">
											<g transform="translate(8, 8)" fill="#33322E" text-align="left" data-name="Sender ICA" data-compartment="2">
												<text x="0.0" y="14.1" stroke="none" data-name="Sender ICA" data-compartment="2">setCommitment()</text>

											</g>
										</g>
									</g>
									<g data-name="Recipient">
										<g fill="#fdf6e3" stroke="#33322E" data-name="Recipient">
											<circle r="4.0" cx="732.0" cy="124.0" data-name="Recipient"></circle>
											<path d="M732.0 128.0 L732.0 136.0" fill="none" data-name="Recipient"></path>
											<path d="M728.0 132.0 L736.0 132.0" fill="none" data-name="Recipient"></path>
											<path d="M728.0 140.0 L732.0 136.0 L736.0 140.0" fill="none" data-name="Recipient"></path>
										</g>
										<g transform="translate(688, 136)" font-family="Helvetica" font-size="12pt" font-weight="normal" font-style="normal" data-name="Recipient" data-compartment="0">
											<g transform="translate(8, 8)" fill="#33322E" text-align="center" data-name="Recipient" data-compartment="0">
												<text x="36.0" y="14.1" stroke="none" text-anchor="middle" data-name="Recipient" data-compartment="0">Recipient</text>

											</g>
										</g>
									</g>
								</g>
							</g>
						</g>
					</g>
					<g data-name="Modular Interop Layer">
						<g fill="#eee8d5" stroke="#33322E" data-name="Modular Interop Layer">
							<rect x="524.0" y="204.0" height="32.0" width="184.0" data-name="Modular Interop Layer"></rect>
						</g>
						<g transform="translate(524, 204)" font-family="Helvetica" font-size="12pt" font-weight="bold" font-style="normal" data-name="Modular Interop Layer" data-compartment="0">
							<g transform="translate(8, 8)" fill="#33322E" text-align="center" data-name="Modular Interop Layer" data-compartment="0">
								<text x="84.0" y="14.1" stroke="none" text-anchor="middle" data-name="Modular Interop Layer" data-compartment="0">Modular Interop Layer</text>

							</g>
						</g>
					</g>
					<g data-name="Superchain">
						<g fill="#eee8d5" stroke="#33322E" data-name="Superchain">
							<rect x="1112.5" y="0.0" height="32.0" width="103.0" data-name="Superchain"></rect>
						</g>
						<g transform="translate(1112.5, 0)" font-family="Helvetica" font-size="12pt" font-weight="bold" font-style="normal" data-name="Superchain" data-compartment="0">
							<g transform="translate(8, 8)" fill="#33322E" text-align="center" data-name="Superchain" data-compartment="0">
								<text x="43.5" y="14.1" stroke="none" text-anchor="middle" data-name="Superchain" data-compartment="0">Superchain</text>

							</g>
						</g>
					</g>
					<g data-name="Hyperlane">
						<g fill="#eee8d5" stroke="#33322E" data-name="Hyperlane">
							<rect x="1117.5" y="408.0" height="32.0" width="93.0" data-name="Hyperlane"></rect>
						</g>
						<g transform="translate(1117.5, 408)" font-family="Helvetica" font-size="12pt" font-weight="bold" font-style="normal" data-name="Hyperlane" data-compartment="0">
							<g transform="translate(8, 8)" fill="#33322E" text-align="center" data-name="Hyperlane" data-compartment="0">
								<text x="38.5" y="14.1" stroke="none" text-anchor="middle" data-name="Hyperlane" data-compartment="0">Hyperlane</text>

							</g>
						</g>
					</g>
				</g>
			</g>
		</g>
	</g>
</svg>
